<svg width="453" height="496" viewBox="0 0 453 496" fill="none" xmlns="http://www.w3.org/2000/svg">
<path d="M7.22656 475V403.906H31.5918C39.6322 403.906 45.752 405.518 49.9512 408.74C54.1504 411.963 56.25 416.764 56.25 423.145C56.25 426.4 55.3711 429.329 53.6133 431.934C51.8555 434.538 49.2839 436.556 45.8984 437.988C49.7396 439.03 52.7018 440.999 54.7852 443.896C56.901 446.761 57.959 450.212 57.959 454.248C57.959 460.921 55.8105 466.048 51.5137 469.629C47.2493 473.21 41.1296 475 33.1543 475H7.22656ZM19.5801 442.92V465.137H33.3008C37.1745 465.137 40.2018 464.176 42.3828 462.256C44.5638 460.335 45.6543 457.666 45.6543 454.248C45.6543 446.859 41.8783 443.083 34.3262 442.92H19.5801ZM19.5801 433.838H31.6895C35.5306 433.838 38.5254 432.975 40.6738 431.25C42.8548 429.492 43.9453 427.018 43.9453 423.828C43.9453 420.312 42.9362 417.773 40.918 416.211C38.9323 414.648 35.8236 413.867 31.5918 413.867H19.5801V433.838ZM101.172 469.824C97.6888 473.926 92.7409 475.977 86.3281 475.977C80.599 475.977 76.2533 474.3 73.291 470.947C70.3613 467.594 68.8965 462.744 68.8965 456.396V422.168H80.7617V456.25C80.7617 462.956 83.5449 466.309 89.1113 466.309C94.873 466.309 98.763 464.242 100.781 460.107V422.168H112.646V475H101.465L101.172 469.824ZM154.346 460.645C154.346 458.529 153.467 456.917 151.709 455.811C149.984 454.704 147.103 453.727 143.066 452.881C139.03 452.035 135.661 450.96 132.959 449.658C127.035 446.794 124.072 442.643 124.072 437.207C124.072 432.65 125.993 428.841 129.834 425.781C133.675 422.721 138.558 421.191 144.482 421.191C150.798 421.191 155.892 422.754 159.766 425.879C163.672 429.004 165.625 433.057 165.625 438.037H153.76C153.76 435.758 152.913 433.87 151.221 432.373C149.528 430.843 147.282 430.078 144.482 430.078C141.878 430.078 139.746 430.68 138.086 431.885C136.458 433.089 135.645 434.701 135.645 436.719C135.645 438.542 136.41 439.958 137.939 440.967C139.469 441.976 142.562 443.001 147.217 444.043C151.872 445.052 155.518 446.273 158.154 447.705C160.824 449.105 162.793 450.798 164.062 452.783C165.365 454.769 166.016 457.178 166.016 460.01C166.016 464.762 164.046 468.62 160.107 471.582C156.169 474.512 151.009 475.977 144.629 475.977C140.299 475.977 136.442 475.195 133.057 473.633C129.671 472.07 127.035 469.922 125.146 467.188C123.258 464.453 122.314 461.507 122.314 458.35H133.838C134.001 461.149 135.059 463.314 137.012 464.844C138.965 466.341 141.553 467.09 144.775 467.09C147.9 467.09 150.277 466.504 151.904 465.332C153.532 464.128 154.346 462.565 154.346 460.645ZM198.096 466.504C201.058 466.504 203.516 465.641 205.469 463.916C207.422 462.191 208.464 460.059 208.594 457.52H219.775C219.645 460.807 218.62 463.883 216.699 466.748C214.779 469.58 212.174 471.826 208.887 473.486C205.599 475.146 202.051 475.977 198.242 475.977C190.853 475.977 184.993 473.584 180.664 468.799C176.335 464.014 174.17 457.406 174.17 448.975V447.754C174.17 439.714 176.318 433.285 180.615 428.467C184.912 423.617 190.771 421.191 198.193 421.191C204.476 421.191 209.587 423.031 213.525 426.709C217.497 430.355 219.58 435.156 219.775 441.113H208.594C208.464 438.086 207.422 435.596 205.469 433.643C203.548 431.689 201.09 430.713 198.096 430.713C194.255 430.713 191.292 432.113 189.209 434.912C187.126 437.679 186.068 441.895 186.035 447.559V449.463C186.035 455.192 187.061 459.473 189.111 462.305C191.195 465.104 194.189 466.504 198.096 466.504ZM260.303 475C259.782 473.991 259.326 472.347 258.936 470.068C255.16 474.007 250.537 475.977 245.068 475.977C239.762 475.977 235.433 474.463 232.08 471.436C228.727 468.408 227.051 464.665 227.051 460.205C227.051 454.574 229.134 450.26 233.301 447.266C237.5 444.238 243.49 442.725 251.27 442.725H258.545V439.258C258.545 436.523 257.78 434.342 256.25 432.715C254.72 431.055 252.393 430.225 249.268 430.225C246.566 430.225 244.352 430.908 242.627 432.275C240.902 433.61 240.039 435.319 240.039 437.402H228.174C228.174 434.505 229.134 431.803 231.055 429.297C232.975 426.758 235.579 424.772 238.867 423.34C242.188 421.908 245.882 421.191 249.951 421.191C256.136 421.191 261.068 422.754 264.746 425.879C268.424 428.971 270.312 433.333 270.41 438.965V462.793C270.41 467.546 271.077 471.338 272.412 474.17V475H260.303ZM247.266 466.455C249.609 466.455 251.807 465.885 253.857 464.746C255.941 463.607 257.503 462.077 258.545 460.156V450.195H252.148C247.754 450.195 244.45 450.96 242.236 452.49C240.023 454.02 238.916 456.185 238.916 458.984C238.916 461.263 239.665 463.086 241.162 464.453C242.692 465.788 244.727 466.455 247.266 466.455ZM338.232 451.855C337.516 459.44 334.717 465.365 329.834 469.629C324.951 473.861 318.457 475.977 310.352 475.977C304.688 475.977 299.691 474.642 295.361 471.973C291.064 469.271 287.744 465.446 285.4 460.498C283.057 455.55 281.836 449.805 281.738 443.262V436.621C281.738 429.915 282.926 424.007 285.303 418.896C287.679 413.786 291.081 409.847 295.508 407.08C299.967 404.313 305.111 402.93 310.938 402.93C318.783 402.93 325.098 405.062 329.883 409.326C334.668 413.59 337.451 419.613 338.232 427.393H325.928C325.342 422.282 323.844 418.604 321.436 416.357C319.059 414.079 315.56 412.939 310.938 412.939C305.566 412.939 301.432 414.909 298.535 418.848C295.671 422.754 294.206 428.499 294.141 436.084V442.383C294.141 450.065 295.508 455.924 298.242 459.961C301.009 463.997 305.046 466.016 310.352 466.016C315.202 466.016 318.848 464.925 321.289 462.744C323.73 460.563 325.277 456.934 325.928 451.855H338.232ZM371.436 475.977C363.916 475.977 357.812 473.617 353.125 468.896C348.47 464.144 346.143 457.829 346.143 449.951V448.486C346.143 443.213 347.152 438.509 349.17 434.375C351.221 430.208 354.085 426.969 357.764 424.658C361.442 422.347 365.544 421.191 370.068 421.191C377.262 421.191 382.812 423.486 386.719 428.076C390.658 432.666 392.627 439.16 392.627 447.559V452.344H358.105C358.464 456.706 359.912 460.156 362.451 462.695C365.023 465.234 368.245 466.504 372.119 466.504C377.555 466.504 381.982 464.307 385.4 459.912L391.797 466.016C389.681 469.173 386.849 471.631 383.301 473.389C379.785 475.114 375.83 475.977 371.436 475.977ZM370.02 430.713C366.764 430.713 364.128 431.852 362.109 434.131C360.124 436.41 358.854 439.583 358.301 443.652H380.908V442.773C380.648 438.802 379.59 435.807 377.734 433.789C375.879 431.738 373.307 430.713 370.02 430.713ZM448.145 449.121C448.145 457.292 446.289 463.818 442.578 468.701C438.867 473.551 433.887 475.977 427.637 475.977C421.842 475.977 417.204 474.072 413.721 470.264V495.312H401.855V422.168H412.793L413.281 427.539C416.764 423.307 421.501 421.191 427.49 421.191C433.936 421.191 438.981 423.6 442.627 428.418C446.305 433.203 448.145 439.86 448.145 448.389V449.121ZM436.328 448.096C436.328 442.822 435.27 438.639 433.154 435.547C431.071 432.454 428.076 430.908 424.17 430.908C419.32 430.908 415.837 432.91 413.721 436.914V460.352C415.869 464.453 419.385 466.504 424.268 466.504C428.044 466.504 430.99 464.99 433.105 461.963C435.254 458.903 436.328 454.281 436.328 448.096Z" fill="white"/>
<path d="M376.667 50L374 50.5L285 85L185 50L91 81.6667C87.5 82.8333 85 85.8333 85 89.6667V341.667C85 346.333 88.6667 350 93.3333 350L96 349.5L185 315L285 350L379 318.333C382.5 317.167 385 314.167 385 310.333V58.3333C385 53.6667 381.333 50 376.667 50ZM201.667 91.1667L268.333 114.5V308.833L201.667 285.5V91.1667ZM118.333 107.667L168.333 90.8333V285.833L118.333 305.167V107.667ZM351.667 292.333L301.667 309.167V114.333L351.667 95V292.333Z" fill="#FABE50"/>
</svg>
