<svg width="1279" height="2778" viewBox="0 0 1279 2778" fill="none" xmlns="http://www.w3.org/2000/svg">
<g clip-path="url(#clip0)">
<rect x="-2" width="1284" height="2778" fill="#0D5C46"/>
<path d="M420.227 1625V1553.91H444.592C452.632 1553.91 458.752 1555.52 462.951 1558.74C467.15 1561.96 469.25 1566.76 469.25 1573.14C469.25 1576.4 468.371 1579.33 466.613 1581.93C464.855 1584.54 462.284 1586.56 458.898 1587.99C462.74 1589.03 465.702 1591 467.785 1593.9C469.901 1596.76 470.959 1600.21 470.959 1604.25C470.959 1610.92 468.811 1616.05 464.514 1619.63C460.249 1623.21 454.13 1625 446.154 1625H420.227ZM432.58 1592.92V1615.14H446.301C450.174 1615.14 453.202 1614.18 455.383 1612.26C457.564 1610.34 458.654 1607.67 458.654 1604.25C458.654 1596.86 454.878 1593.08 447.326 1592.92H432.58ZM432.58 1583.84H444.689C448.531 1583.84 451.525 1582.98 453.674 1581.25C455.855 1579.49 456.945 1577.02 456.945 1573.83C456.945 1570.31 455.936 1567.77 453.918 1566.21C451.932 1564.65 448.824 1563.87 444.592 1563.87H432.58V1583.84ZM514.172 1619.82C510.689 1623.93 505.741 1625.98 499.328 1625.98C493.599 1625.98 489.253 1624.3 486.291 1620.95C483.361 1617.59 481.896 1612.74 481.896 1606.4V1572.17H493.762V1606.25C493.762 1612.96 496.545 1616.31 502.111 1616.31C507.873 1616.31 511.763 1614.24 513.781 1610.11V1572.17H525.646V1625H514.465L514.172 1619.82ZM567.346 1610.64C567.346 1608.53 566.467 1606.92 564.709 1605.81C562.984 1604.7 560.103 1603.73 556.066 1602.88C552.03 1602.03 548.661 1600.96 545.959 1599.66C540.035 1596.79 537.072 1592.64 537.072 1587.21C537.072 1582.65 538.993 1578.84 542.834 1575.78C546.675 1572.72 551.558 1571.19 557.482 1571.19C563.798 1571.19 568.892 1572.75 572.766 1575.88C576.672 1579 578.625 1583.06 578.625 1588.04H566.76C566.76 1585.76 565.913 1583.87 564.221 1582.37C562.528 1580.84 560.282 1580.08 557.482 1580.08C554.878 1580.08 552.746 1580.68 551.086 1581.88C549.458 1583.09 548.645 1584.7 548.645 1586.72C548.645 1588.54 549.41 1589.96 550.939 1590.97C552.469 1591.98 555.562 1593 560.217 1594.04C564.872 1595.05 568.518 1596.27 571.154 1597.71C573.824 1599.1 575.793 1600.8 577.062 1602.78C578.365 1604.77 579.016 1607.18 579.016 1610.01C579.016 1614.76 577.046 1618.62 573.107 1621.58C569.169 1624.51 564.009 1625.98 557.629 1625.98C553.299 1625.98 549.442 1625.2 546.057 1623.63C542.671 1622.07 540.035 1619.92 538.146 1617.19C536.258 1614.45 535.314 1611.51 535.314 1608.35H546.838C547.001 1611.15 548.059 1613.31 550.012 1614.84C551.965 1616.34 554.553 1617.09 557.775 1617.09C560.9 1617.09 563.277 1616.5 564.904 1615.33C566.532 1614.13 567.346 1612.57 567.346 1610.64ZM611.096 1616.5C614.058 1616.5 616.516 1615.64 618.469 1613.92C620.422 1612.19 621.464 1610.06 621.594 1607.52H632.775C632.645 1610.81 631.62 1613.88 629.699 1616.75C627.779 1619.58 625.174 1621.83 621.887 1623.49C618.599 1625.15 615.051 1625.98 611.242 1625.98C603.853 1625.98 597.993 1623.58 593.664 1618.8C589.335 1614.01 587.17 1607.41 587.17 1598.97V1597.75C587.17 1589.71 589.318 1583.28 593.615 1578.47C597.912 1573.62 603.771 1571.19 611.193 1571.19C617.476 1571.19 622.587 1573.03 626.525 1576.71C630.497 1580.35 632.58 1585.16 632.775 1591.11H621.594C621.464 1588.09 620.422 1585.6 618.469 1583.64C616.548 1581.69 614.09 1580.71 611.096 1580.71C607.255 1580.71 604.292 1582.11 602.209 1584.91C600.126 1587.68 599.068 1591.89 599.035 1597.56V1599.46C599.035 1605.19 600.061 1609.47 602.111 1612.3C604.195 1615.1 607.189 1616.5 611.096 1616.5ZM673.303 1625C672.782 1623.99 672.326 1622.35 671.936 1620.07C668.16 1624.01 663.537 1625.98 658.068 1625.98C652.762 1625.98 648.433 1624.46 645.08 1621.44C641.727 1618.41 640.051 1614.66 640.051 1610.21C640.051 1604.57 642.134 1600.26 646.301 1597.27C650.5 1594.24 656.49 1592.72 664.27 1592.72H671.545V1589.26C671.545 1586.52 670.78 1584.34 669.25 1582.71C667.72 1581.05 665.393 1580.22 662.268 1580.22C659.566 1580.22 657.352 1580.91 655.627 1582.28C653.902 1583.61 653.039 1585.32 653.039 1587.4H641.174C641.174 1584.51 642.134 1581.8 644.055 1579.3C645.975 1576.76 648.579 1574.77 651.867 1573.34C655.188 1571.91 658.882 1571.19 662.951 1571.19C669.136 1571.19 674.068 1572.75 677.746 1575.88C681.424 1578.97 683.312 1583.33 683.41 1588.96V1612.79C683.41 1617.55 684.077 1621.34 685.412 1624.17V1625H673.303ZM660.266 1616.46C662.609 1616.46 664.807 1615.89 666.857 1614.75C668.941 1613.61 670.503 1612.08 671.545 1610.16V1600.2H665.148C660.754 1600.2 657.45 1600.96 655.236 1602.49C653.023 1604.02 651.916 1606.18 651.916 1608.98C651.916 1611.26 652.665 1613.09 654.162 1614.45C655.692 1615.79 657.727 1616.46 660.266 1616.46ZM751.232 1601.86C750.516 1609.44 747.717 1615.36 742.834 1619.63C737.951 1623.86 731.457 1625.98 723.352 1625.98C717.688 1625.98 712.691 1624.64 708.361 1621.97C704.064 1619.27 700.744 1615.45 698.4 1610.5C696.057 1605.55 694.836 1599.8 694.738 1593.26V1586.62C694.738 1579.92 695.926 1574.01 698.303 1568.9C700.679 1563.79 704.081 1559.85 708.508 1557.08C712.967 1554.31 718.111 1552.93 723.938 1552.93C731.783 1552.93 738.098 1555.06 742.883 1559.33C747.668 1563.59 750.451 1569.61 751.232 1577.39H738.928C738.342 1572.28 736.844 1568.6 734.436 1566.36C732.059 1564.08 728.56 1562.94 723.938 1562.94C718.566 1562.94 714.432 1564.91 711.535 1568.85C708.671 1572.75 707.206 1578.5 707.141 1586.08V1592.38C707.141 1600.07 708.508 1605.92 711.242 1609.96C714.009 1614 718.046 1616.02 723.352 1616.02C728.202 1616.02 731.848 1614.93 734.289 1612.74C736.73 1610.56 738.277 1606.93 738.928 1601.86H751.232ZM784.436 1625.98C776.916 1625.98 770.812 1623.62 766.125 1618.9C761.47 1614.14 759.143 1607.83 759.143 1599.95V1598.49C759.143 1593.21 760.152 1588.51 762.17 1584.38C764.221 1580.21 767.085 1576.97 770.764 1574.66C774.442 1572.35 778.544 1571.19 783.068 1571.19C790.262 1571.19 795.812 1573.49 799.719 1578.08C803.658 1582.67 805.627 1589.16 805.627 1597.56V1602.34H771.105C771.464 1606.71 772.912 1610.16 775.451 1612.7C778.023 1615.23 781.245 1616.5 785.119 1616.5C790.555 1616.5 794.982 1614.31 798.4 1609.91L804.797 1616.02C802.681 1619.17 799.849 1621.63 796.301 1623.39C792.785 1625.11 788.83 1625.98 784.436 1625.98ZM783.02 1580.71C779.764 1580.71 777.128 1581.85 775.109 1584.13C773.124 1586.41 771.854 1589.58 771.301 1593.65H793.908V1592.77C793.648 1588.8 792.59 1585.81 790.734 1583.79C788.879 1581.74 786.307 1580.71 783.02 1580.71ZM861.145 1599.12C861.145 1607.29 859.289 1613.82 855.578 1618.7C851.867 1623.55 846.887 1625.98 840.637 1625.98C834.842 1625.98 830.204 1624.07 826.721 1620.26V1645.31H814.855V1572.17H825.793L826.281 1577.54C829.764 1573.31 834.501 1571.19 840.49 1571.19C846.936 1571.19 851.981 1573.6 855.627 1578.42C859.305 1583.2 861.145 1589.86 861.145 1598.39V1599.12ZM849.328 1598.1C849.328 1592.82 848.27 1588.64 846.154 1585.55C844.071 1582.45 841.076 1580.91 837.17 1580.91C832.32 1580.91 828.837 1582.91 826.721 1586.91V1610.35C828.869 1614.45 832.385 1616.5 837.268 1616.5C841.044 1616.5 843.99 1614.99 846.105 1611.96C848.254 1608.9 849.328 1604.28 849.328 1598.1Z" fill="white"/>
<path d="M789.667 1200L787 1200.5L698 1235L598 1200L504 1231.67C500.5 1232.83 498 1235.83 498 1239.67V1491.67C498 1496.33 501.667 1500 506.333 1500L509 1499.5L598 1465L698 1500L792 1468.33C795.5 1467.17 798 1464.17 798 1460.33V1208.33C798 1203.67 794.333 1200 789.667 1200ZM614.667 1241.17L681.333 1264.5V1458.83L614.667 1435.5V1241.17ZM531.333 1257.67L581.333 1240.83V1435.83L531.333 1455.17V1257.67ZM764.667 1442.33L714.667 1459.17V1264.33L764.667 1245V1442.33Z" fill="#FABE50"/>
</g>
<defs>
<clipPath id="clip0">
<rect width="1279" height="2778" fill="white"/>
</clipPath>
</defs>
</svg>
